<?xml version="1.0" encoding="iso-8859-1"?>
<!-- Generator: Adobe Illustrator 19.0.0, SVG Export Plug-In . SVG Version: 6.00 Build 0)  -->
<svg version="1.1" id="Layer_1" xmlns="http://www.w3.org/2000/svg" xmlns:xlink="http://www.w3.org/1999/xlink" x="0px" y="0px"
	 viewBox="0 0 512 512" style="enable-background:new 0 0 512 512;" xml:space="preserve">
<g>
	<path style="fill:#3A5D74;" d="M393.915,353.418c-4.673,0-8.46-3.788-8.46-8.46v-120.83c0-4.672,3.787-8.46,8.46-8.46
		c4.672,0,8.46,3.788,8.46,8.46v120.83C402.375,349.63,398.588,353.418,393.915,353.418z"/>
	<path style="fill:#3A5D74;" d="M484.582,376.487c-4.672,0-8.46-3.788-8.46-8.46V224.129c0-4.672,3.788-8.46,8.46-8.46
		s8.46,3.788,8.46,8.46v143.898C493.042,372.699,489.254,376.487,484.582,376.487z"/>
	<path style="fill:#3A5D74;" d="M118.084,353.418c-4.672,0-8.46-3.788-8.46-8.46v-120.83c0-4.672,3.788-8.46,8.46-8.46
		c4.672,0,8.46,3.788,8.46,8.46v120.83C126.543,349.63,122.756,353.418,118.084,353.418z"/>
	<path style="fill:#3A5D74;" d="M27.417,376.487c-4.672,0-8.46-3.788-8.46-8.46V224.129c0-4.672,3.788-8.46,8.46-8.46
		s8.46,3.788,8.46,8.46v143.898C35.876,372.699,32.087,376.487,27.417,376.487z"/>
</g>
<path style="fill:#578CAD;" d="M506.481,371.526l-195.474-54.733c-0.594-0.166-1.208-0.25-1.825-0.25H202.816
	c-0.617,0-1.231,0.085-1.825,0.25L5.52,371.526c-2.923,0.819-4.943,3.482-4.943,6.517v58.783c0,3.738,3.031,6.768,6.768,6.768
	h497.312c3.737,0,6.768-3.03,6.768-6.768v-58.783C511.424,375.009,509.404,372.345,506.481,371.526z"/>
<g>
	<path style="fill:#3A5D74;" d="M312.369,512H199.632c-4.672,0-8.46-3.788-8.46-8.46s3.788-8.46,8.46-8.46h112.737
		c4.673,0,8.46,3.788,8.46,8.46S317.041,512,312.369,512z"/>
	<path style="fill:#3A5D74;" d="M256.001,63.787c-4.672,0-8.46-3.788-8.46-8.46V8.46c0-4.672,3.788-8.46,8.46-8.46
		c4.672,0,8.46,3.788,8.46,8.46v46.868C264.46,59.999,260.673,63.787,256.001,63.787z"/>
</g>
<path style="fill:#90C8EC;" d="M256.001,55.328c-31.131,0-56.369,25.236-56.369,56.367v45.587v78.058v74.261v27.563v102.172
	c0,11.859,9.615,21.473,21.474,21.473h69.79c11.857,0,21.473-9.614,21.473-21.473V337.164v-27.563V235.34V209.55v-26.506v-25.761
	v-45.588C312.369,80.563,287.132,55.328,256.001,55.328z"/>
<path style="fill:#578CAD;" d="M276.579,112.994c0,11.366-9.214,20.578-20.578,20.578l0,0c-11.365,0-20.579-9.212-20.579-20.578l0,0
	c0-11.365,9.214-20.578,20.579-20.578l0,0C267.365,92.415,276.579,101.628,276.579,112.994L276.579,112.994z"/>
<g>
	<path style="opacity:0.1;fill:#231F20;enable-background:new    ;" d="M18.624,437.057v-64.862c0-1.831,0.685-3.525,1.814-4.846
		l-14.919,4.178c-2.923,0.819-4.943,3.482-4.943,6.517v58.783c0,3.738,3.031,6.768,6.768,6.768h15.143
		C20.185,442.323,18.624,439.872,18.624,437.057z"/>
	<path style="opacity:0.1;fill:#231F20;enable-background:new    ;" d="M217.678,439.336V337.164v-27.563V235.34v-78.058v-45.588
		c0-28.059,20.505-51.318,47.346-55.638c-2.938-0.473-5.951-0.729-9.024-0.729c-31.131,0-56.369,25.236-56.369,56.367v45.587v78.058
		V309.6v27.563v102.172c0,11.859,9.615,21.473,21.474,21.473h18.047C227.294,460.809,217.678,451.195,217.678,439.336z"/>
	<path style="opacity:0.1;fill:#231F20;enable-background:new    ;" d="M253.468,112.994c0-8.124,4.719-15.127,11.555-18.472
		c-2.727-1.334-5.781-2.106-9.022-2.106c-11.365,0-20.579,9.212-20.579,20.578s9.214,20.578,20.579,20.578
		c3.242,0,6.295-0.77,9.022-2.105C258.187,128.121,253.468,121.118,253.468,112.994z"/>
</g>
<path style="fill:#3A5D74;" d="M256.001,427.896c-4.672,0-8.46-3.788-8.46-8.46V307.596c0-4.672,3.788-8.46,8.46-8.46
	c4.672,0,8.46,3.788,8.46,8.46v111.841C264.46,424.109,260.673,427.896,256.001,427.896z"/>
<g>
</g>
<g>
</g>
<g>
</g>
<g>
</g>
<g>
</g>
<g>
</g>
<g>
</g>
<g>
</g>
<g>
</g>
<g>
</g>
<g>
</g>
<g>
</g>
<g>
</g>
<g>
</g>
<g>
</g>
</svg>
